<svg aria-hidden="true" style="width:0;height:0;position:absolute;overflow:hidden" xmlns="http://www.w3.org/2000/svg"><defs><symbol id="icon-logo" viewBox="0 0 32 32"><path fill="none" stroke="#fff" style="stroke:var(--color1,#fff)" stroke-linejoin="round" stroke-linecap="round" stroke-width="2.667" d="M26.427 2.667H5.574a2.914 2.914 0 0 0-2.907 2.907v20.853c0 1.6 1.307 2.907 2.907 2.907h20.853c1.6 0 2.907-1.307 2.907-2.907V5.574c0-1.6-1.307-2.907-2.907-2.907zm-17.094 0v26.667M22.667 2.667v26.667M2.667 16h26.667M2.667 9.333h6.667M2.667 22.667h6.667m13.333 0h6.667M22.667 9.333h6.667"/></symbol><symbol id="icon-search" viewBox="0 0 32 32"><path fill="none" stroke="#fff" style="stroke:var(--color1,#fff)" stroke-linejoin="round" stroke-linecap="round" stroke-width="2.667" d="M14.667 25.333c5.891 0 10.667-4.776 10.667-10.667S20.558 3.999 14.667 3.999v0C8.776 3.999 4 8.775 4 14.666s4.776 10.667 10.667 10.667v0zM28 28l-5.813-5.787"/></symbol><symbol id="icon-heart" viewBox="0 0 32 32"><path fill="#ff6b08" style="fill:var(--color2,#ff6b08)" d="m16 30.149-2.24-2.217C5.44 20.641 0 15.726 0 9.715v-.07a8.64 8.64 0 0 1 8.809-8.638h-.008c2.72 0 5.44 1.257 7.2 3.314a9.627 9.627 0 0 1 7.196-3.314h.004l.16-.001a8.64 8.64 0 0 1 8.64 8.64v.05-.003c0 6.034-5.44 10.949-13.76 18.24l-2.24 2.217z"/></symbol><symbol id="icon-close" viewBox="0 0 32 32"><path stroke-width="2.133" d="m8.533 8.533 14.933 14.933m-14.933.001L23.466 8.534"/></symbol></defs></svg>